<svg id="Logo" xmlns="http://www.w3.org/2000/svg" viewBox="0 0 419.02 114.55"><defs><style>.cls-1{fill:#fff;}.cls-2{fill:#006432;}</style></defs><path class="cls-1" d="M75.7,67A25.51,25.51,0,0,1,80,81.64q0,15.49-10,23.48t-28.89,8H0V6.59H37.59q19.24,0,29.66,7.32T77.68,35.85a24.9,24.9,0,0,1-3.77,13.57,22.86,22.86,0,0,1-11.37,9Q71.38,60.65,75.7,67ZM23,25.17V51.06H37.59q8.71,0,12.91-3.18t4.21-9.47q0-7-4.06-10.13T37.59,25.17ZM53.1,91a12.21,12.21,0,0,0,4-9.54q0-14.34-15-14.34H23v27.5H41.18Q49.07,94.58,53.1,91Z"/><path class="cls-1" d="M95.78,52a33.57,33.57,0,0,1,12.91-14.33q8.48-5.19,20.26-5.19t20.37,5.19A33.51,33.51,0,0,1,162.26,52a47.12,47.12,0,0,1,4.43,20.78v1.53a46.85,46.85,0,0,1-4.43,20.74,33.6,33.6,0,0,1-12.91,14.3q-8.47,5.19-20.26,5.19t-20.37-5.19a33.55,33.55,0,0,1-12.94-14.3,46.85,46.85,0,0,1-4.43-20.74V72.79A47.12,47.12,0,0,1,95.78,52Zm21.39,38.66q3.73,6.1,11.92,6.11t11.78-6.15q3.74-6.13,3.73-16.31V72.79q0-10.1-3.73-16.31T129,50.26q-8.05,0-11.78,6.25t-3.73,16.28v1.53Q113.44,84.57,117.17,90.67Z"/><path class="cls-1" d="M221.76,32.74a19.53,19.53,0,0,1,3.07.62l-.29,21.36a57.46,57.46,0,0,0-7.82-.58q-11.85,0-15.44,7.82v51.13H179.2V34H200l.66,9.58a21.84,21.84,0,0,1,7.42-8.19,18.52,18.52,0,0,1,10.13-2.85A26.86,26.86,0,0,1,221.76,32.74Z"/><path class="cls-1" d="M304.05,80.69H254a19.47,19.47,0,0,0,6.14,11.73q4.9,4.36,12.58,4.36a25.75,25.75,0,0,0,10.57-2.16,21.88,21.88,0,0,0,8.3-6.47l10.61,12.21A32.33,32.33,0,0,1,290,110.45a40.68,40.68,0,0,1-18.76,4.1q-12.13,0-21.1-5.12a35.14,35.14,0,0,1-13.75-13.9,39.71,39.71,0,0,1-4.79-19.38V73.37a48.18,48.18,0,0,1,4.46-21.14A34,34,0,0,1,249,37.71q8.41-5.22,19.9-5.22,11.19,0,19.09,4.75a30.42,30.42,0,0,1,12,13.49q4.1,8.75,4.1,20.59ZM282.4,64.16q-.15-6.44-3.55-10.17t-10.13-3.73q-6.29,0-9.84,4.17t-4.64,11.48H282.4Z"/><path class="cls-1" d="M380.84,104.46a28.68,28.68,0,0,0,2.42,7.38v1.25H361.1A23.38,23.38,0,0,1,359,106q-7.55,8.57-19.83,8.56a30,30,0,0,1-13.6-3.07,24.34,24.34,0,0,1-9.69-8.49,21.73,21.73,0,0,1-3.55-12.21q0-12.51,9.29-19.27T349,64.74h9V60.28q0-5.49-2.78-8.52c-1.85-2-4.63-3-8.33-3-3.37,0-6,.8-7.87,2.38a8.36,8.36,0,0,0-2.81,6.77H314.07A21.42,21.42,0,0,1,318.27,45a28.33,28.33,0,0,1,11.93-9.14A44.22,44.22,0,0,1,348,32.49a41.29,41.29,0,0,1,16.61,3.14,25.06,25.06,0,0,1,11.33,9.44q4.11,6.28,4.1,15.36V93.56A60.23,60.23,0,0,0,380.84,104.46Zm-28.23-8.74A13.63,13.63,0,0,0,358,90.63V77.39h-8.41q-7.68,0-11.45,3.33a11,11,0,0,0-3.76,8.67A7.69,7.69,0,0,0,337,95.46a10.42,10.42,0,0,0,7.13,2.34A16.81,16.81,0,0,0,352.61,95.72Z"/><path class="cls-1" d="M396.86,113.09V.74H419V113.09Z"/><path class="cls-2" d="M294.13,5.48C279,6.51,277.81-.61,269.87,0c-5.85.48-10,6-12.17,9.72a.4.4,0,0,1-.42.2,35.25,35.25,0,0,1-7.93-2.54c-1.4-.65-2.61,2.36-1.47,2.94,11.56,5.91,27.61,1.83,33.51,0a.4.4,0,0,1,.35.72C278,13.73,269,18.85,257.68,17.2a.41.41,0,0,0-.39.64,14.11,14.11,0,0,0,14.44,6C284,21.76,296.54,5,294.13,5.48Z"/></svg>