<svg id="Sprite" xmlns="http://www.w3.org/2000/svg" viewBox="0 0 150 100"><defs><style>.cls-1{fill:#fff;}.cls-2{fill:#005a32;}</style></defs><rect class="cls-1" y="50" width="50" height="50"/><path id="Tracé_80" data-name="Tracé 80" class="cls-2" d="M21.38,75.12V88.54a.37.37,0,0,0,.35.35h5a.36.36,0,0,0,.35-.35h0V74.88h3.62a.31.31,0,0,0,.35-.35l.35-4.08a.3.3,0,0,0-.35-.35h-4V67.18a1.29,1.29,0,0,1,1.17-1.29h2.8a.36.36,0,0,0,.35-.35h0V61.46a.3.3,0,0,0-.35-.35H26.4a5,5,0,0,0-5,5h0v4H18.93c-.12,0-.24.11-.35.23v4.2a.36.36,0,0,0,.35.35h2.45v.24"/><rect class="cls-1" x="50" y="50" width="50" height="50"/><path id="Tracé_79" data-name="Tracé 79" class="cls-2" d="M86.63,67.59a9,9,0,0,1-2.33.7c.35,0,.93-.7,1.16-1.05a8.2,8.2,0,0,0,.82-1.4v-.12h-.11a13.38,13.38,0,0,1-2.81,1h-.23c-.12-.12-.12-.23-.23-.23a8.56,8.56,0,0,0-1.41-.82,6.7,6.7,0,0,0-2.1-.35,3.91,3.91,0,0,0-2,.58,8.64,8.64,0,0,0-1.64,1.29,4.13,4.13,0,0,0-.93,1.87,5.48,5.48,0,0,0,0,2c0,.12,0,.12-.12.12a14.43,14.43,0,0,1-9.57-4.91c-.12-.11-.24-.11-.24,0A4.79,4.79,0,0,0,65.73,72a2,2,0,0,0,.59.46A5.52,5.52,0,0,1,64.45,72c-.12-.12-.24,0-.24.11v.59a5.11,5.11,0,0,0,3,4c.23.11.35.11.58.23a4.85,4.85,0,0,1-1.86,0c-.12,0-.24,0-.12.23a5.43,5.43,0,0,0,3.85,3.27c.24,0,.35,0,.47.12h0c-.47.7-2,1.17-2.57,1.4a9.14,9.14,0,0,1-4,.47h-.35v.11a2.75,2.75,0,0,0,.82.47,10.38,10.38,0,0,0,2.68,1,14,14,0,0,0,13.66-3.27c2.81-2.8,3.74-6.65,3.74-10.51,0-.11.23-.23.23-.35a9.85,9.85,0,0,0,1.87-2c.35-.12.35-.23.35-.35h0c.12-.12.12,0,0,0"/><rect class="cls-1" x="100" y="50" width="50" height="50"/><path class="cls-2" d="M125.24,79.7a4.79,4.79,0,0,0,3.16-8.39,5.06,5.06,0,0,0-1.18-.76,4.75,4.75,0,0,0-4,0,5.18,5.18,0,0,0-1.18.76,4.79,4.79,0,0,0,3.15,8.39Zm0-8.33a3.54,3.54,0,1,1-3.54,3.54A3.55,3.55,0,0,1,125.26,71.37Zm5.31.38h6.89V82.2a4.8,4.8,0,0,1-4.8,4.81H117.92a4.86,4.86,0,0,1-4.87-4.81V71.75h6.87a6.09,6.09,0,0,0-.89,3.16,6.22,6.22,0,1,0,11.54-3.16Zm2.09-9.15H120.17v5.08h-1V62.6h-1v5.08h-1v-5a4.87,4.87,0,0,0-1,.28v4.73h-1V63.51a4.78,4.78,0,0,0-2,3.89v3.33h7.6a6.2,6.2,0,0,1,9.18,0h7.63V67.4A4.8,4.8,0,0,0,132.66,62.6ZM135.43,68a.76.76,0,0,1-.76.75h-2.55a.76.76,0,0,1-.76-.75V65.38a.76.76,0,0,1,.76-.75h2.55a.76.76,0,0,1,.76.75Z"/><path id="Tracé_80-2" data-name="Tracé 80" class="cls-1" d="M21.38,25.12V38.54a.37.37,0,0,0,.35.35h5a.36.36,0,0,0,.35-.35h0V24.88h3.62a.31.31,0,0,0,.35-.35l.35-4.08a.3.3,0,0,0-.35-.35h-4V17.18a1.29,1.29,0,0,1,1.17-1.29h2.8a.36.36,0,0,0,.35-.35h0V11.46a.3.3,0,0,0-.35-.35H26.4a5,5,0,0,0-5,5h0v4H18.93c-.12,0-.24.11-.35.23v4.2a.36.36,0,0,0,.35.35h2.45v.24"/><path id="Tracé_79-2" data-name="Tracé 79" class="cls-1" d="M86.63,17.59a9,9,0,0,1-2.33.7c.35,0,.93-.7,1.16-1.05a8.2,8.2,0,0,0,.82-1.4v-.12h-.11a13.38,13.38,0,0,1-2.81,1h-.23c-.12-.12-.12-.23-.23-.23a8.56,8.56,0,0,0-1.41-.82,6.7,6.7,0,0,0-2.1-.35,3.91,3.91,0,0,0-2,.58,8.64,8.64,0,0,0-1.64,1.29,4.13,4.13,0,0,0-.93,1.87,5.48,5.48,0,0,0,0,2c0,.12,0,.12-.12.12a14.43,14.43,0,0,1-9.57-4.91c-.12-.11-.24-.11-.24,0A4.79,4.79,0,0,0,65.73,22a2,2,0,0,0,.59.46A5.52,5.52,0,0,1,64.45,22c-.12-.12-.24,0-.24.11v.59a5.11,5.11,0,0,0,3,4c.23.11.35.11.58.23a4.85,4.85,0,0,1-1.86,0c-.12,0-.24,0-.12.23a5.43,5.43,0,0,0,3.85,3.27c.24,0,.35,0,.47.12h0c-.47.7-2,1.17-2.57,1.4a9.14,9.14,0,0,1-4,.47h-.35v.11a2.75,2.75,0,0,0,.82.47,10.38,10.38,0,0,0,2.68,1,14,14,0,0,0,13.66-3.27c2.81-2.8,3.74-6.65,3.74-10.51,0-.11.23-.23.23-.35a9.85,9.85,0,0,0,1.87-2c.35-.12.35-.23.35-.35h0c.12-.12.12,0,0,0"/><path class="cls-1" d="M125,29.9a4.79,4.79,0,0,0,3.16-8.39,5.06,5.06,0,0,0-1.18-.76,4.75,4.75,0,0,0-3.95,0,5.18,5.18,0,0,0-1.18.76A4.79,4.79,0,0,0,125,29.9Zm0-8.33a3.54,3.54,0,1,1-3.54,3.54A3.55,3.55,0,0,1,125,21.57Zm5.31.38h6.89V32.4a4.8,4.8,0,0,1-4.8,4.8H117.66a4.85,4.85,0,0,1-4.86-4.8V22h6.86a6.09,6.09,0,0,0-.89,3.16A6.22,6.22,0,1,0,130.31,22Zm2.09-9.15H119.91v5.08h-1V12.8h-1v5.08h-1v-5a4.87,4.87,0,0,0-1,.28v4.73h-1V13.71a4.77,4.77,0,0,0-2,3.89v3.33h7.6a6.19,6.19,0,0,1,9.17,0h7.63V17.6A4.8,4.8,0,0,0,132.4,12.8Zm2.77,5.35a.76.76,0,0,1-.76.75h-2.55a.76.76,0,0,1-.76-.75V15.58a.75.75,0,0,1,.76-.75h2.55a.75.75,0,0,1,.76.75Z"/></svg>