<svg enable-background="new 0 0 418 117.3" viewBox="0 0 418 117.3" xmlns="http://www.w3.org/2000/svg"><g fill="#333"><path d="m0 115.8v-106.9h37.4c13 0 22.8 2.5 29.5 7.5s10.1 12.3 10.1 21.8c.1 4.9-1.3 9.7-4 13.8s-6.6 7.2-11.2 8.9c5.2 1.2 9.8 4.1 13 8.3 3.2 4.4 4.9 9.8 4.7 15.3 0 10.3-3.3 18.1-9.8 23.4-6.6 5.3-15.9 8-28 8.1zm22-62.1h16.3c11.1-.2 16.7-4.6 16.7-13.3 0-4.9-1.4-8.3-4.2-10.5-2.8-2.1-7.3-3.2-13.3-3.2h-15.5zm0 15.6v28.8h18.9c5.2 0 9.2-1.2 12.2-3.7 2.9-2.5 4.4-5.9 4.4-10.2 0-9.8-5.1-14.8-15.2-14.9z"/><path d="m90 75.4c-.1-7.3 1.4-14.5 4.6-21.1 2.9-6 7.4-10.9 13.1-14.3 6-3.5 12.9-5.2 19.9-5.1 10.7 0 19.5 3.3 26.2 9.8s10.6 15.5 11.4 26.8l.1 5.4c0 12.2-3.4 22-10.2 29.3-6.8 7.4-15.9 11.1-27.4 11.1s-20.6-3.7-27.4-11c-6.9-7.3-10.3-17.3-10.3-30zm21.2 1.5c0 7.6 1.4 13.3 4.3 17.3s6.9 6 12.2 6c4.7.2 9.3-2.1 12-5.9 2.9-3.9 4.3-10.3 4.3-18.9 0-7.4-1.4-13.1-4.3-17.2-2.7-4-7.3-6.3-12.2-6.1-4.8-.2-9.3 2.1-12 6.1-2.9 3.9-4.3 10.2-4.3 18.7z"/><path d="m222.2 56.3c-2.5-.4-5.1-.6-7.6-.6-8 0-13.3 2.7-15.8 8.2v52h-21.2v-79.5h20l.6 9.5c4.3-7.3 10.2-11 17.7-11 2.2 0 4.5.3 6.6 1z"/><path d="m267.8 117.3c-11.6 0-21.1-3.6-28.5-10.7s-11-16.7-11-28.6v-2c-.1-7.4 1.5-14.7 4.6-21.4 2.8-6 7.4-11.1 13.1-14.5 5.9-3.5 12.6-5.3 19.4-5.1 10.9 0 19.4 3.4 25.7 10.3s9.3 16.6 9.4 29.1v8.6h-50.6c.5 4.8 2.7 9.2 6.2 12.5 3.6 3.2 8.3 4.9 13.1 4.7 8.2 0 14.6-3 19.2-8.9l10.4 11.7c-3.3 4.6-7.8 8.2-12.9 10.5-5.7 2.6-11.9 3.9-18.1 3.8zm-2.4-65.3c-3.9-.1-7.6 1.4-10.2 4.3s-4.3 6.9-5 12.2h29.5v-1.7c-.1-4.7-1.4-8.4-3.9-11s-6-3.8-10.4-3.8z"/><path d="m359.9 115.8c-1.1-2.2-1.8-4.6-2.1-7.1-5.1 5.7-11.8 8.6-20 8.6-7.8 0-14.2-2.2-19.3-6.8-5-4.2-7.8-10.5-7.7-17 0-8.4 3.1-14.9 9.4-19.4 6.2-4.5 15.3-6.8 27-6.8h9.8v-4.6c.2-3.2-.8-6.3-2.8-8.8-1.9-2.2-4.9-3.3-8.9-3.3-3.6 0-6.4.9-8.4 2.6-2 1.8-3.1 4.3-3 7h-21.3c0-4.6 1.5-9.1 4.3-12.7 3.1-4.1 7.2-7.3 12-9.2 5.5-2.3 11.5-3.4 17.5-3.4 9.8 0 17.6 2.5 23.3 7.4 5.8 4.9 8.6 11.8 8.6 20.7v34.4c0 7.5 1.1 13.2 3.2 17.1v1.2zm-17.5-14.7c3 0 6-.7 8.7-2.1 2.5-1.2 4.5-3.2 5.9-5.6v-13.7h-8c-10.6 0-16.3 3.7-17 11l-.1 1.2c-.1 2.5 1 4.9 2.8 6.5 2.1 1.9 4.9 2.8 7.7 2.7z"/><path d="m418 115.8h-21.3v-112.7h21.3z"/></g><path d="m291.4 6.4c-17.6 1.2-19-7.1-28.3-6.3-6.8.5-11.6 7-14.2 11.3-.1.2-.3.3-.5.2-3.2-.6-6.3-1.6-9.2-3-1.6-.8-3 2.8-1.7 3.4 13.5 6.9 32.2 2.1 39 0 .3-.1.5.1.6.3 0 .2 0 .4-.2.5-4.4 3.1-14.8 9-28 7.1-.3 0-.5.1-.5.4 0 .1 0 .3.1.4 2.3 3.1 7.4 8.6 16.8 7 14.2-2.4 28.9-21.9 26.1-21.3z" fill="#006437"/></svg>